<?xml version="1.0" encoding="UTF-8" standalone="no"?>
<svg
   xmlns:dc="http://purl.org/dc/elements/1.1/"
   xmlns:cc="http://creativecommons.org/ns#"
   xmlns:rdf="http://www.w3.org/1999/02/22-rdf-syntax-ns#"
   xmlns:svg="http://www.w3.org/2000/svg"
   xmlns="http://www.w3.org/2000/svg"
   width="128.0px"
   height="128.0px"
   viewBox="0 0 128.0 128.0"
   version="1.1"
   id="SVGRoot">
  <defs
     id="defs59866">
    <clipPath
       clipPathUnits="userSpaceOnUse"
       id="clipPath50702">
      <path
         d="m 410.739,1847.95 h 25.275 v -25.27 h -25.275 z"
         id="path50700" />
    </clipPath>
    <clipPath
       clipPathUnits="userSpaceOnUse"
       id="clipPath50954">
      <path
         d="m 530,1710.46 h 40 v -23.66 h -40 z"
         id="path50952" />
    </clipPath>
    <clipPath
       clipPathUnits="userSpaceOnUse"
       id="clipPath51654">
      <path
         d="m 782,1575.96 h 26.967 v -20 H 782 Z"
         id="path51652" />
    </clipPath>
    <clipPath
       clipPathUnits="userSpaceOnUse"
       id="clipPath51670">
      <path
         d="M 796.759,1589.96 H 836 v -30.35 h -39.241 z"
         id="path51668" />
    </clipPath>
    <clipPath
       clipPathUnits="userSpaceOnUse"
       id="clipPath51690">
      <path
         d="m 783.115,1589.96 h 20.808 v -15.59 h -20.808 z"
         id="path51688" />
    </clipPath>
    <clipPath
       clipPathUnits="userSpaceOnUse"
       id="clipPath51594">
      <path
         d="m 653.561,1591.96 h 18.313 v -15.88 h -18.313 z"
         id="path51592" />
    </clipPath>
    <clipPath
       clipPathUnits="userSpaceOnUse"
       id="clipPath51610">
      <path
         d="m 654,1577.96 h 26.967 v -20 H 654 Z"
         id="path51608" />
    </clipPath>
    <clipPath
       clipPathUnits="userSpaceOnUse"
       id="clipPath51626">
      <path
         d="M 668.759,1591.96 H 708 v -30.35 h -39.241 z"
         id="path51624" />
    </clipPath>
    <clipPath
       clipPathUnits="userSpaceOnUse"
       id="clipPath55374">
      <path
         d="m 1164,813.558 h 25.38 V 795.966 H 1164 Z"
         id="path55372" />
    </clipPath>
    <clipPath
       clipPathUnits="userSpaceOnUse"
       id="clipPath55390">
      <path
         d="M 1181.99,824.764 H 1212 v -26.083 h -30.01 z"
         id="path55388" />
    </clipPath>
    <clipPath
       clipPathUnits="userSpaceOnUse"
       id="clipPath55410">
      <path
         d="m 1165.99,824.764 h 18 v -12.348 h -18 z"
         id="path55408" />
    </clipPath>
    <clipPath
       clipPathUnits="userSpaceOnUse"
       id="clipPath55450">
      <path
         d="m 1292,813.558 h 25.38 V 795.966 H 1292 Z"
         id="path55448" />
    </clipPath>
    <clipPath
       clipPathUnits="userSpaceOnUse"
       id="clipPath55466">
      <path
         d="M 1309.99,824.764 H 1340 v -26.083 h -30.01 z"
         id="path55464" />
    </clipPath>
    <clipPath
       clipPathUnits="userSpaceOnUse"
       id="clipPath55486">
      <path
         d="m 1294.06,824.764 h 17.96 v -12.303 h -17.96 z"
         id="path55484" />
    </clipPath>
    <clipPath
       clipPathUnits="userSpaceOnUse"
       id="clipPath55450-1">
      <path
         d="m 1292,813.558 h 25.38 V 795.966 H 1292 Z"
         id="path55448-1" />
    </clipPath>
    <clipPath
       clipPathUnits="userSpaceOnUse"
       id="clipPath55466-1">
      <path
         d="M 1309.99,824.764 H 1340 v -26.083 h -30.01 z"
         id="path55464-6" />
    </clipPath>
    <clipPath
       clipPathUnits="userSpaceOnUse"
       id="clipPath55486-5">
      <path
         d="m 1294.06,824.764 h 17.96 v -12.303 h -17.96 z"
         id="path55484-6" />
    </clipPath>
    <clipPath
       clipPathUnits="userSpaceOnUse"
       id="clipPath54170">
      <path
         d="m 1171.06,1087.89 h 12.93 v -11.93 h -12.93 z"
         id="path54168" />
    </clipPath>
    <clipPath
       clipPathUnits="userSpaceOnUse"
       id="clipPath54186">
      <path
         d="m 1168,1076.42 h 22 v -16.46 h -22 z"
         id="path54184" />
    </clipPath>
    <clipPath
       clipPathUnits="userSpaceOnUse"
       id="clipPath54202">
      <path
         d="M 1180.89,1087.96 H 1214 v -23.97 h -33.11 z"
         id="path54200" />
    </clipPath>
    <clipPath
       clipPathUnits="userSpaceOnUse"
       id="clipPath57166">
      <path
         d="m 1427.06,1215.89 h 12.93 v -11.93 h -12.93 z"
         id="path57164" />
    </clipPath>
    <clipPath
       clipPathUnits="userSpaceOnUse"
       id="clipPath57182">
      <path
         d="m 1424,1204.42 h 22 v -16.46 h -22 z"
         id="path57180" />
    </clipPath>
    <clipPath
       clipPathUnits="userSpaceOnUse"
       id="clipPath57198">
      <path
         d="M 1436.89,1215.96 H 1470 v -23.97 h -33.11 z"
         id="path57196" />
    </clipPath>
    <clipPath
       clipPathUnits="userSpaceOnUse"
       id="clipPath56714">
      <path
         d="m 401,948.418 h 22 V 931.96 h -22 z"
         id="path56712" />
    </clipPath>
    <clipPath
       clipPathUnits="userSpaceOnUse"
       id="clipPath56730">
      <path
         d="m 413.891,959.957 h 33.106 v -23.97 h -33.106 z"
         id="path56728" />
    </clipPath>
    <clipPath
       clipPathUnits="userSpaceOnUse"
       id="clipPath56750">
      <path
         d="m 402.303,960.86 h 14.684 v -12.903 h -14.684 z"
         id="path56748" />
    </clipPath>
    <clipPath
       clipPathUnits="userSpaceOnUse"
       id="clipPath51902">
      <path
         d="m 651,1465.96 h 32 v -22 h -32 z"
         id="path51900" />
    </clipPath>
    <clipPath
       clipPathUnits="userSpaceOnUse"
       id="clipPath51918">
      <path
         d="M 670.57,1479.96 H 711 v -31.56 h -40.43 z"
         id="path51916" />
    </clipPath>
    <clipPath
       clipPathUnits="userSpaceOnUse"
       id="clipPath56298">
      <path
         d="m 1046.06,1087.89 h 12.93 v -11.93 h -12.93 z"
         id="path56296" />
    </clipPath>
    <clipPath
       clipPathUnits="userSpaceOnUse"
       id="clipPath56314">
      <path
         d="m 1043,1076.42 h 22 v -16.46 h -22 z"
         id="path56312" />
    </clipPath>
    <clipPath
       clipPathUnits="userSpaceOnUse"
       id="clipPath56330">
      <path
         d="M 1055.89,1087.96 H 1089 v -23.97 h -33.11 z"
         id="path56328" />
    </clipPath>
    <clipPath
       clipPathUnits="userSpaceOnUse"
       id="clipPath56454">
      <path
         d="m 1298,948.418 h 22 V 931.96 h -22 z"
         id="path56452" />
    </clipPath>
    <clipPath
       clipPathUnits="userSpaceOnUse"
       id="clipPath56470">
      <path
         d="M 1310.89,959.957 H 1344 v -23.97 h -33.11 z"
         id="path56468" />
    </clipPath>
    <clipPath
       clipPathUnits="userSpaceOnUse"
       id="clipPath56490">
      <path
         d="m 1299.3,960.86 h 14.69 v -12.903 h -14.69 z"
         id="path56488" />
    </clipPath>
    <clipPath
       clipPathUnits="userSpaceOnUse"
       id="clipPath54998">
      <path
         d="m 401,818.418 h 22 V 801.96 h -22 z"
         id="path54996" />
    </clipPath>
    <clipPath
       clipPathUnits="userSpaceOnUse"
       id="clipPath55014">
      <path
         d="m 413.891,829.957 h 33.106 v -23.97 h -33.106 z"
         id="path55012" />
    </clipPath>
    <clipPath
       clipPathUnits="userSpaceOnUse"
       id="clipPath55034">
      <path
         d="m 402.303,830.86 h 14.684 v -12.903 h -14.684 z"
         id="path55032" />
    </clipPath>
    <clipPath
       clipPathUnits="userSpaceOnUse"
       id="clipPath54278">
      <path
         d="m 1428.06,1087.89 h 12.93 v -11.93 h -12.93 z"
         id="path54276" />
    </clipPath>
    <clipPath
       clipPathUnits="userSpaceOnUse"
       id="clipPath54294">
      <path
         d="m 1425,1076.42 h 22 v -16.46 h -22 z"
         id="path54292" />
    </clipPath>
    <clipPath
       clipPathUnits="userSpaceOnUse"
       id="clipPath54310">
      <path
         d="M 1437.89,1087.96 H 1471 v -23.97 h -33.11 z"
         id="path54308" />
    </clipPath>
    <clipPath
       clipPathUnits="userSpaceOnUse"
       id="clipPath57782">
      <path
         d="m 1462,1710.46 h 6 v -6 h -6 z"
         id="path57780" />
    </clipPath>
    <clipPath
       clipPathUnits="userSpaceOnUse"
       id="clipPath57798">
      <path
         d="m 1464,1722.46 h 8.97 v -5.5 H 1464 Z"
         id="path57796" />
    </clipPath>
    <clipPath
       clipPathUnits="userSpaceOnUse"
       id="clipPath57814">
      <path
         d="m 1420,1710.46 h 31 v -6 h -31 z"
         id="path57812" />
    </clipPath>
    <clipPath
       clipPathUnits="userSpaceOnUse"
       id="clipPath57830">
      <path
         d="m 1446,1722.46 h 13.98 v -5.5 H 1446 Z"
         id="path57828" />
    </clipPath>
    <clipPath
       clipPathUnits="userSpaceOnUse"
       id="clipPath57846">
      <path
         d="m 1436,1722.46 h 5.98 v -6 H 1436 Z"
         id="path57844" />
    </clipPath>
    <clipPath
       clipPathUnits="userSpaceOnUse"
       id="clipPath57862">
      <path
         d="m 1443.99,1686.46 h 23.98 v -5.5 h -23.98 z"
         id="path57860" />
    </clipPath>
    <clipPath
       clipPathUnits="userSpaceOnUse"
       id="clipPath57878">
      <path
         d="m 1416,1698.46 h 60 v -5.5 h -60 z"
         id="path57876" />
    </clipPath>
    <clipPath
       clipPathUnits="userSpaceOnUse"
       id="clipPath57894">
      <path
         d="m 1428.99,1686.46 h 10.98 v -5.5 h -10.98 z"
         id="path57892" />
    </clipPath>
    <clipPath
       clipPathUnits="userSpaceOnUse"
       id="clipPath57910">
      <path
         d="m 1418,1722.46 h 12 v -6 h -12 z"
         id="path57908" />
    </clipPath>
    <clipPath
       clipPathUnits="userSpaceOnUse"
       id="clipPath55558">
      <path
         d="m 776,707.966 h 30 V 677.96 h -30 z"
         id="path55556" />
    </clipPath>
    <clipPath
       clipPathUnits="userSpaceOnUse"
       id="clipPath55574">
      <path
         d="m 806,707.966 h 30 V 677.96 h -30 z"
         id="path55572" />
    </clipPath>
  </defs>
  <metadata
     id="metadata59869">
    <rdf:RDF>
      <cc:Work
         rdf:about="">
        <dc:format>image/svg+xml</dc:format>
        <dc:type
           rdf:resource="http://purl.org/dc/dcmitype/StillImage" />
        <dc:title></dc:title>
      </cc:Work>
    </rdf:RDF>
  </metadata>
  <g
     id="layer1"
     style="display:inline;">
    <g
       id="g60997"
       transform="matrix(1.3333333,0,0,-1.3333333,-1014.6666,973.95451)">
      <g
         id="g55548"
         transform="translate(828.5,681.9649)">
        <path
           d="m 0,0 c 3.106,0 5.883,-1.612 7.5,-4.005 0,16.568 -13.432,30.006 -30,30.006 -16.568,0 -30,-13.438 -30,-30.006 1.613,2.416 4.376,4.005 7.5,4.005 3.107,0 5.883,-1.612 7.5,-4.005 1.615,2.412 4.379,4.005 7.5,4.005 3.144,0 5.891,-1.563 7.5,-4.005 1.611,2.432 4.364,4.005 7.5,4.005 3.107,0 5.883,-1.612 7.5,-4.005 C -5.885,-1.593 -3.121,0 0,0"
           style="fill:#3b99ff;fill-opacity:1;fill-rule:nonzero;stroke:none"
           id="path55550" />
      </g>
      <g
         id="g55552">
        <g
           id="g55554" />
        <g
           id="g55566">
          <g
             clip-path="url(#clipPath55558)"
             opacity="0.100006"
             id="g55564">
            <g
               transform="translate(806,707.9659)"
               id="g55562">
              <path
                 d="m 0,0 c -16.568,0 -30,-13.438 -30,-30.006 1.613,2.416 4.376,4.005 7.5,4.005 3.107,0 5.883,-1.612 7.5,-4.005 C -15,-13.438 -8.284,0 0,0"
                 style="fill:#000064;fill-opacity:1;fill-rule:nonzero;stroke:none"
                 id="path55560" />
            </g>
          </g>
        </g>
      </g>
      <g
         id="g55568">
        <g
           id="g55570" />
        <g
           id="g55582">
          <g
             clip-path="url(#clipPath55574)"
             opacity="0.5"
             id="g55580">
            <g
               transform="translate(806,707.9659)"
               id="g55578">
              <path
                 d="m 0,0 c 8.284,0 15,-13.438 15,-30.006 1.615,2.412 4.379,4.005 7.5,4.005 3.106,0 5.883,-1.612 7.5,-4.005 C 30,-13.438 16.568,0 0,0"
                 style="fill:#ffffff;fill-opacity:1;fill-rule:nonzero;stroke:none"
                 id="path55576" />
            </g>
          </g>
        </g>
      </g>
      <g
         id="g55584"
         transform="translate(806,707.9659)">
        <path
           d="M 0,0 V 3.996"
           style="fill:none;stroke:#2e4369;stroke-width:2;stroke-linecap:round;stroke-linejoin:round;stroke-miterlimit:10;stroke-dasharray:none;stroke-opacity:1"
           id="path55586" />
      </g>
      <g
         id="g55588"
         transform="translate(814,655.96)">
        <path
           d="m 0,0 c 0,-2.209 -1.791,-4 -4,-4 -2.209,0 -4,1.791 -4,4 v 21.952"
           style="fill:none;stroke:#2e4369;stroke-width:2;stroke-linecap:round;stroke-linejoin:round;stroke-miterlimit:10;stroke-dasharray:none;stroke-opacity:1"
           id="path55590" />
      </g>
      <g
         id="g55592"
         transform="translate(776,677.9659)">
        <path
           d="M 0,0 C 0,16.568 13.432,30 30,30 46.568,30 60,16.568 60,0"
           style="fill:none;stroke:#2e4369;stroke-width:2;stroke-linecap:round;stroke-linejoin:round;stroke-miterlimit:10;stroke-dasharray:none;stroke-opacity:1"
           id="path55594" />
      </g>
      <g
         id="g55596"
         transform="translate(776.0107,677.9571)">
        <path
           d="m 0,0 c 1.613,2.417 4.365,4.008 7.489,4.008 3.108,0 5.846,-1.573 7.463,-3.966"
           style="fill:none;stroke:#2e4369;stroke-width:2;stroke-linecap:round;stroke-linejoin:round;stroke-miterlimit:10;stroke-dasharray:none;stroke-opacity:1"
           id="path55598" />
      </g>
      <g
         id="g55600"
         transform="translate(791.0137,677.963)">
        <path
           d="m 0,0 c 1.615,2.413 4.365,4.002 7.486,4.002 3.144,0 5.91,-1.611 7.52,-4.053"
           style="fill:none;stroke:#2e4369;stroke-width:2;stroke-linecap:round;stroke-linejoin:round;stroke-miterlimit:10;stroke-dasharray:none;stroke-opacity:1"
           id="path55602" />
      </g>
      <g
         id="g55604"
         transform="translate(805.9922,677.9297)">
        <path
           d="m 0,0 c 1.611,2.432 4.372,4.035 7.508,4.035 3.107,0 5.846,-1.573 7.463,-3.966"
           style="fill:none;stroke:#2e4369;stroke-width:2;stroke-linecap:round;stroke-linejoin:round;stroke-miterlimit:10;stroke-dasharray:none;stroke-opacity:1"
           id="path55606" />
      </g>
      <g
         id="g55608"
         transform="translate(821.0137,677.963)">
        <path
           d="m 0,0 c 1.615,2.413 4.365,4.002 7.486,4.002 3.107,0 5.846,-1.573 7.463,-3.966"
           style="fill:none;stroke:#2e4369;stroke-width:2;stroke-linecap:round;stroke-linejoin:round;stroke-miterlimit:10;stroke-dasharray:none;stroke-opacity:1"
           id="path55610" />
      </g>
    </g>
  </g>
</svg>
